Coordinates
version=1
nRows=16
nColumns=42
inDegrees=yes

Units are S.I. units (second, meters, Newtons, ...)
If the header above contains a line with 'inDegrees', this indicates whether rotational values are in degrees (yes) or radians (no).

endheader
time	pelvis_tilt	pelvis_list	pelvis_rotation	pelvis_tx	pelvis_ty	pelvis_tz	hip_flexion_r	hip_adduction_r	hip_rotation_r	knee_angle_r	knee_adduction_r	knee_angle_r_beta	ankle_angle_r	subtalar_angle_r	mtp_angle_r	hip_flexion_l	hip_adduction_l	hip_rotation_l	knee_angle_l	knee_adduction_l	knee_angle_l_beta	ankle_angle_l	subtalar_angle_l	mtp_angle_l	lumbar_extension	lumbar_bending	lumbar_rotation	arm_flex_r	arm_add_r	arm_rot_r	elbow_flex_r	pro_sup_r	wrist_flex_r	wrist_dev_r	arm_flex_l	arm_add_l	arm_rot_l	elbow_flex_l	pro_sup_l	wrist_flex_l	wrist_dev_l
      0.51000000	     11.92550858	      0.08300551	      1.17348706	     -1.02339684	      0.87126857	     -0.40198228	     13.32762661	      2.08131447	    -14.82425400	     14.33327379	     -4.94393048	      0.25016282	      5.92080631	     11.89081633	     -9.00435206	    -29.80409697	     -1.75809431	    -32.16686112	     17.40903381	     -0.84250807	      0.30384496	     19.87030868	     27.87728113	     -9.00435206	    -24.17540194	     -2.47185809	     -5.57579028	     -4.41026691	     -0.74072211	    -27.06656144	     30.74052194	     90.00000001	      0.00000000	      0.00000000	      8.49140493	     -6.19904378	     -9.28233525	     45.68381172	     90.00000001	      0.00000000	      0.00000000
      0.52000000	     11.80162409	     -0.13341166	      1.27657769	     -1.01066070	      0.87082385	     -0.40090381	     13.25182103	      2.62562059	    -14.04543203	     15.32069578	     -5.20791896	      0.26739659	      5.29525204	      9.99084028	     -8.87414620	    -29.80809743	     -2.22430286	    -31.84709720	     18.54464910	     -1.38075492	      0.32366519	     18.66076564	     27.25709040	     -8.87414620	    -23.83177396	     -2.09887940	     -5.41371123	     -4.36250123	     -0.71519919	    -27.13240892	     30.77279975	     90.00000001	      0.00000000	      0.00000000	      8.34441780	     -6.12077752	     -9.00699267	     45.49982891	     90.00000001	      0.00000000	      0.00000000
      0.53000000	     11.76566743	     -0.39999379	      1.36194467	     -0.99780754	      0.87060087	     -0.39973174	     13.12960242	      3.14959184	    -13.78222964	     16.53332865	     -5.48925021	      0.28856102	      5.04529148	      9.58743179	     -8.85427201	    -29.80659895	     -2.77194107	    -31.54837424	     19.87992092	     -1.90403211	      0.34697008	     17.59790093	     26.72965028	     -8.85427201	    -23.58871528	     -1.68004940	     -5.26284310	     -4.30088688	     -0.70536330	    -27.08062410	     30.82185364	     90.00000001	      0.00000000	      0.00000000	      8.09515346	     -6.00661531	     -8.96939824	     45.43987970	     90.00000001	      0.00000000	      0.00000000
      0.54000000	     11.83343288	     -0.76153336	      1.45278792	     -0.98488787	      0.87069047	     -0.39850146	     12.84096724	      3.75985427	    -13.57138959	     17.77437511	     -5.76402091	      0.31022137	      4.85736488	      8.86147352	     -8.83863768	    -29.80025501	     -3.41543620	    -31.31377783	     21.35828854	     -2.51258452	      0.37277246	     16.09366901	     26.03976409	     -8.83863768	    -23.46091114	     -1.15486229	     -5.06041580	     -4.18786290	     -0.72894173	    -27.01887861	     30.84330001	     90.00000001	      0.00000000	      0.00000000	      7.82338339	     -5.88254807	     -8.91543507	     45.33842756	     90.00000001	      0.00000000	      0.00000000
      0.55000000	     11.91625398	     -1.16622803	      1.46043975	     -0.97210648	      0.87125855	     -0.39722193	     12.23984088	      4.54950236	    -11.90572395	     18.66117637	     -5.80214667	      0.32569897	      4.13274912	      4.96668655	     -8.73274853	    -29.79430886	     -3.86089584	    -30.09964077	     22.70098559	     -2.95778890	      0.39620694	     13.78074860	     22.77231104	     -8.73274853	    -23.38888880	     -0.59748911	     -4.80089590	     -4.11161604	     -0.81802660	    -26.50736681	     30.97164442	     90.00000001	      0.00000000	      0.00000000	      7.48061066	     -5.81618532	     -8.60037614	     45.28594433	     90.00000001	      0.00000000	      0.00000000
      0.56000000	     12.15450967	     -1.67746057	      1.45656980	     -0.95928920	      0.87201222	     -0.39580291	     11.52110889	      5.35492940	    -11.02182913	     19.62765311	     -5.84589183	      0.34256717	      3.92006658	      3.01769497	     -8.62890464	    -29.77976807	     -4.53915478	    -29.36085606	     24.42512551	     -3.43095459	      0.42629886	     11.80824222	     20.68161132	     -8.62890464	    -23.47805618	      0.05656271	     -4.50998293	     -3.95927196	     -0.93636659	    -25.96237219	     31.10224579	     90.00000001	      0.00000000	      0.00000000	      7.12643316	     -5.74436163	     -8.42740945	     45.25666958	     90.00000001	      0.00000000	      0.00000000
      0.57000000	     12.53997704	     -2.15855629	      1.43009779	     -0.94655506	      0.87297713	     -0.39437238	     10.65627396	      6.00981256	    -10.73641790	     20.61869906	     -5.83209521	      0.35986419	      4.12683927	      2.78892158	     -8.61847442	    -29.75642901	     -5.22424409	    -28.86036744	     26.41162954	     -3.98750209	      0.46096990	     10.34085812	     20.01877433	     -8.61847442	    -23.74605384	      0.66738197	     -4.22400413	     -3.66614586	     -0.97070165	    -25.85430719	     31.19720796	     90.00000001	      0.00000000	      0.00000000	      6.79598751	     -5.68297383	     -8.39828938	     45.17681263	     90.00000001	      0.00000000	      0.00000000
      0.58000000	     12.93588304	     -2.72173963	      1.36531611	     -0.93387051	      0.87434601	     -0.39292583	      9.54025396	      6.85420653	     -9.83803401	     21.21193197	     -5.78535855	      0.37021805	      4.49722400	      1.05599282	     -8.55302741	    -29.71530805	     -5.77795232	    -27.34777308	     28.33263467	     -4.23888907	      0.49449776	      7.30743719	     15.20946035	     -8.55302741	    -24.03193648	      1.35781568	     -3.90970983	     -3.47240558	     -1.13846281	    -25.14733363	     31.50547640	     90.00000001	      0.00000000	      0.00000000	      6.20688104	     -5.67527129	     -8.06185008	     45.47412978	     90.00000001	      0.00000000	      0.00000000
      0.59000000	     13.46951396	     -3.31199902	      1.31497037	     -0.92133695	      0.87586758	     -0.39138102	      8.20049115	      7.68005976	     -9.29993486	     21.61169583	     -5.72177447	      0.37719525	      4.86195708	      0.01489173	     -8.47902394	    -29.65113046	     -6.45185654	    -25.94169208	     30.60387825	     -4.37028859	      0.53413844	      5.16151062	     11.49040883	     -8.47902394	    -24.49448021	      2.04687659	     -3.56698894	     -3.26834675	     -1.30739343	    -24.25364952	     31.78999547	     90.00000001	      0.00000000	      0.00000000	      5.69693826	     -5.69644868	     -7.73210113	     45.61892786	     90.00000001	      0.00000000	      0.00000000
      0.60000000	     14.11830382	     -4.00746776	      1.27149699	     -0.90891112	      0.87743686	     -0.38978743	      6.67109882	      8.60438369	     -9.19776044	     21.81134460	     -5.75897696	      0.38067978	      5.59089643	     -0.10883077	     -8.45954573	    -29.51203084	     -7.33464334	    -25.34563289	     33.15301044	     -4.79649668	      0.57862919	      3.45097707	      9.78273125	     -8.45954573	    -25.07974460	      2.84035254	     -3.19597230	     -2.88155568	     -1.41164268	    -23.94577260	     32.03061859	     90.00000001	      0.00000000	      0.00000000	      5.20352473	     -5.66683087	     -7.64019837	     45.68431152	     90.00000001	      0.00000000	      0.00000000
      0.61000000	     14.68183856	     -4.41380871	      1.14884385	     -0.89678419	      0.87921596	     -0.38827471	      5.10958060	      9.14820423	     -8.80573541	     21.81544722	     -5.61037792	      0.38075138	      6.29479021	     -0.11339821	     -8.40308068	    -29.21062205	     -7.71027065	    -23.27962450	     35.74601291	     -4.51385204	      0.62388562	      1.02214287	      4.15426285	     -8.40308068	    -25.61895226	      3.26920058	     -2.91354246	     -2.67991608	     -1.56241052	    -22.87901662	     32.59593590	     90.00000001	      0.00000000	      0.00000000	      4.48220538	     -5.79553896	     -7.24054494	     46.27007628	     90.00000001	      0.00000000	      0.00000000
      0.62000000	     15.09034074	     -4.99788317	      1.15297133	     -0.88496256	      0.88066178	     -0.38670941	      3.71297763	      9.85315216	     -9.01910862	     21.66504307	     -5.55489363	      0.37812633	      7.02261430	      0.08011425	     -8.38254476	    -28.35722751	     -8.54595412	    -22.65836233	     38.84738562	     -4.95106212	      0.67801478	      0.04919495	      2.74425817	     -8.38254476	    -26.00831832	      3.90525798	     -2.65456540	     -2.22593456	     -1.62122916	    -22.50946164	     32.92236782	     90.00000001	      0.00000000	      0.00000000	      3.97810505	     -5.81873858	     -7.15179551	     46.26712811	     90.00000001	      0.00000000	      0.00000000
      0.63000000	     15.15123603	     -5.41696314	      1.12342100	     -0.87363446	      0.88188097	     -0.38513828	      2.65726414	     10.37025371	     -9.08506517	     21.38980078	     -5.44507640	      0.37332245	      7.75360597	      0.48197202	     -8.36116444	    -26.83236628	     -9.19116880	    -21.98352449	     42.26261945	     -5.48762787	      0.73762186	     -0.84862386	      0.68012705	     -8.36116444	    -26.09557435	      4.33423045	     -2.44195332	     -1.79496091	     -1.62910688	    -22.07895549	     33.32218209	     90.00000001	      0.00000000	      0.00000000	      3.43986881	     -5.88168897	     -7.05890153	     46.40202630	     90.00000001	      0.00000000	      0.00000000
      0.64000000	     15.18282166	     -5.52380599	      0.98639586	     -0.86257066	      0.88325682	     -0.38370980	      1.65918772	     10.48586982	     -9.44142607	     21.14015100	     -5.41814763	      0.36896524	      8.68700030	      1.71410332	     -8.29391008	    -25.29041195	     -9.27819169	    -19.75260250	     45.54064131	     -4.97064059	      0.79483413	     -2.96207166	     -6.12085605	     -8.29391008	    -26.17845367	      4.40856185	     -2.21642805	     -1.58202658	     -1.88520908	    -20.37869812	     33.92606322	     90.00000001	      0.00000000	      0.00000000	      2.80991691	     -5.98746330	     -6.68818888	     46.91473673	     90.00000001	      0.00000000	      0.00000000
      0.65000000	     15.08571614	     -5.71208820	      0.93748298	     -0.85177395	      0.88438694	     -0.38223003	      0.77365648	     10.69737181	     -9.97487190	     20.74344096	     -5.39419070	      0.36204134	      9.51870897	      2.96926350	     -8.22703606	    -23.36998383	     -9.62561851	    -18.78608039	     48.90401203	     -5.22171389	      0.85353603	     -3.62401484	     -8.97626386	     -8.22703606	    -26.14453158	      4.55914368	     -2.04935176	     -1.31313232	     -2.04221283	    -19.01608349	     34.57612517	     90.00000001	      0.00000000	      0.00000000	      2.32710919	     -6.04049923	     -6.62110673	     46.98041023	     90.00000001	      0.00000000	      0.00000000
      0.66000000	     14.95487245	     -5.89853695	      0.88397259	     -0.84113710	      0.88547415	     -0.38066283	     -0.15676238	     10.96252298	    -10.19402481	     20.18186634	     -5.35003902	      0.35224002	     10.07274100	      3.56319164	     -8.20620308	    -21.32670537	    -10.00937064	    -18.39388623	     52.10972758	     -5.81735391	      0.90948632	     -3.32378220	    -10.09787861	     -8.20620308	    -26.08953297	      4.68680782	     -1.83204861	     -0.86129678	     -2.00834280	    -18.65929189	     35.05737537	     90.00000001	      0.00000000	      0.00000000	      1.88444418	     -6.06882432	     -6.64329121	     46.96936943	     90.00000001	      0.00000000	      0.00000000
